<svg id="visual" viewBox="0 0 960 540" width="960" height="540" xmlns="http://www.w3.org/2000/svg" xmlns:xlink="http://www.w3.org/1999/xlink" version="1.1"><rect x="0" y="0" width="960" height="540" fill="#01294f"></rect><defs><linearGradient id="grad1_0" x1="43.8%" y1="0%" x2="100%" y2="100%"><stop offset="14.444444444444446%" stop-color="#0360ba" stop-opacity="1"></stop><stop offset="85.55555555555554%" stop-color="#0360ba" stop-opacity="1"></stop></linearGradient></defs><defs><linearGradient id="grad1_1" x1="43.8%" y1="0%" x2="100%" y2="100%"><stop offset="14.444444444444446%" stop-color="#0360ba" stop-opacity="1"></stop><stop offset="85.55555555555554%" stop-color="#0057a7" stop-opacity="1"></stop></linearGradient></defs><defs><linearGradient id="grad1_2" x1="43.8%" y1="0%" x2="100%" y2="100%"><stop offset="14.444444444444446%" stop-color="#004d95" stop-opacity="1"></stop><stop offset="85.55555555555554%" stop-color="#0057a7" stop-opacity="1"></stop></linearGradient></defs><defs><linearGradient id="grad1_3" x1="43.8%" y1="0%" x2="100%" y2="100%"><stop offset="14.444444444444446%" stop-color="#004d95" stop-opacity="1"></stop><stop offset="85.55555555555554%" stop-color="#004483" stop-opacity="1"></stop></linearGradient></defs><defs><linearGradient id="grad1_4" x1="43.8%" y1="0%" x2="100%" y2="100%"><stop offset="14.444444444444446%" stop-color="#003b71" stop-opacity="1"></stop><stop offset="85.55555555555554%" stop-color="#004483" stop-opacity="1"></stop></linearGradient></defs><defs><linearGradient id="grad1_5" x1="43.8%" y1="0%" x2="100%" y2="100%"><stop offset="14.444444444444446%" stop-color="#003b71" stop-opacity="1"></stop><stop offset="85.55555555555554%" stop-color="#003260" stop-opacity="1"></stop></linearGradient></defs><defs><linearGradient id="grad1_6" x1="43.8%" y1="0%" x2="100%" y2="100%"><stop offset="14.444444444444446%" stop-color="#01294f" stop-opacity="1"></stop><stop offset="85.55555555555554%" stop-color="#003260" stop-opacity="1"></stop></linearGradient></defs><defs><linearGradient id="grad2_0" x1="0%" y1="0%" x2="56.3%" y2="100%"><stop offset="14.444444444444446%" stop-color="#0360ba" stop-opacity="1"></stop><stop offset="85.55555555555554%" stop-color="#0360ba" stop-opacity="1"></stop></linearGradient></defs><defs><linearGradient id="grad2_1" x1="0%" y1="0%" x2="56.3%" y2="100%"><stop offset="14.444444444444446%" stop-color="#0057a7" stop-opacity="1"></stop><stop offset="85.55555555555554%" stop-color="#0360ba" stop-opacity="1"></stop></linearGradient></defs><defs><linearGradient id="grad2_2" x1="0%" y1="0%" x2="56.3%" y2="100%"><stop offset="14.444444444444446%" stop-color="#0057a7" stop-opacity="1"></stop><stop offset="85.55555555555554%" stop-color="#004d95" stop-opacity="1"></stop></linearGradient></defs><defs><linearGradient id="grad2_3" x1="0%" y1="0%" x2="56.3%" y2="100%"><stop offset="14.444444444444446%" stop-color="#004483" stop-opacity="1"></stop><stop offset="85.55555555555554%" stop-color="#004d95" stop-opacity="1"></stop></linearGradient></defs><defs><linearGradient id="grad2_4" x1="0%" y1="0%" x2="56.3%" y2="100%"><stop offset="14.444444444444446%" stop-color="#004483" stop-opacity="1"></stop><stop offset="85.55555555555554%" stop-color="#003b71" stop-opacity="1"></stop></linearGradient></defs><defs><linearGradient id="grad2_5" x1="0%" y1="0%" x2="56.3%" y2="100%"><stop offset="14.444444444444446%" stop-color="#003260" stop-opacity="1"></stop><stop offset="85.55555555555554%" stop-color="#003b71" stop-opacity="1"></stop></linearGradient></defs><defs><linearGradient id="grad2_6" x1="0%" y1="0%" x2="56.3%" y2="100%"><stop offset="14.444444444444446%" stop-color="#003260" stop-opacity="1"></stop><stop offset="85.55555555555554%" stop-color="#01294f" stop-opacity="1"></stop></linearGradient></defs><g transform="translate(960, 0)"><path d="M0 486C-53.9 453.6 -107.9 421.1 -165.7 400C-223.5 378.9 -285.3 369.1 -335.9 335.9C-386.5 302.6 -425.8 245.9 -449 186C-472.2 126.1 -479.1 63 -486 0L0 0Z" fill="#002d57"></path><path d="M0 416.6C-46.2 388.8 -92.5 361 -142 342.9C-191.6 324.8 -244.5 316.4 -287.9 287.9C-331.2 259.4 -365 210.8 -384.9 159.4C-404.7 108.1 -410.6 54 -416.6 0L0 0Z" fill="#003668"></path><path d="M0 347.1C-38.5 324 -77 300.8 -118.4 285.7C-159.7 270.7 -203.8 263.7 -239.9 239.9C-276 216.2 -304.2 175.6 -320.7 132.8C-337.3 90.1 -342.2 45 -347.1 0L0 0Z" fill="#003f7a"></path><path d="M0 277.7C-30.8 259.2 -61.6 240.7 -94.7 228.6C-127.7 216.5 -163 210.9 -191.9 191.9C-220.8 172.9 -243.3 140.5 -256.6 106.3C-269.8 72.1 -273.8 36 -277.7 0L0 0Z" fill="#00498c"></path><path d="M0 208.3C-23.1 194.4 -46.2 180.5 -71 171.4C-95.8 162.4 -122.3 158.2 -143.9 143.9C-165.6 129.7 -182.5 105.4 -192.4 79.7C-202.4 54 -205.3 27 -208.3 0L0 0Z" fill="#00529e"></path><path d="M0 138.9C-15.4 129.6 -30.8 120.3 -47.3 114.3C-63.9 108.3 -81.5 105.5 -96 96C-110.4 86.5 -121.7 70.3 -128.3 53.1C-134.9 36 -136.9 18 -138.9 0L0 0Z" fill="#005bb1"></path><path d="M0 69.4C-7.7 64.8 -15.4 60.2 -23.7 57.1C-31.9 54.1 -40.8 52.7 -48 48C-55.2 43.2 -60.8 35.1 -64.1 26.6C-67.5 18 -68.4 9 -69.4 0L0 0Z" fill="#0360ba"></path></g><g transform="translate(0, 540)"><path d="M0 -486C56 -461.2 112 -436.3 172.6 -416.7C233.2 -397 298.3 -382.5 343.7 -343.7C389 -304.8 414.7 -241.6 435.1 -180.2C455.6 -118.9 470.8 -59.5 486 0L0 0Z" fill="#002d57"></path><path d="M0 -416.6C48 -395.3 96 -374 147.9 -357.1C199.8 -340.3 255.7 -327.9 294.6 -294.6C333.5 -261.3 355.5 -207.1 373 -154.5C390.5 -101.9 403.5 -51 416.6 0L0 0Z" fill="#003668"></path><path d="M0 -347.1C40 -329.4 80 -311.7 123.3 -297.6C166.5 -283.6 213 -273.2 245.5 -245.5C277.9 -217.7 296.2 -172.6 310.8 -128.7C325.4 -84.9 336.3 -42.5 347.1 0L0 0Z" fill="#003f7a"></path><path d="M0 -277.7C32 -263.5 64 -249.3 98.6 -238.1C133.2 -226.9 170.4 -218.6 196.4 -196.4C222.3 -174.2 237 -138 248.7 -103C260.3 -67.9 269 -34 277.7 0L0 0Z" fill="#00498c"></path><path d="M0 -208.3C24 -197.6 48 -187 74 -178.6C99.9 -170.1 127.8 -163.9 147.3 -147.3C166.7 -130.6 177.7 -103.5 186.5 -77.2C195.3 -51 201.8 -25.5 208.3 0L0 0Z" fill="#00529e"></path><path d="M0 -138.9C16 -131.8 32 -124.7 49.3 -119C66.6 -113.4 85.2 -109.3 98.2 -98.2C111.2 -87.1 118.5 -69 124.3 -51.5C130.2 -34 134.5 -17 138.9 0L0 0Z" fill="#005bb1"></path><path d="M0 -69.4C8 -65.9 16 -62.3 24.7 -59.5C33.3 -56.7 42.6 -54.6 49.1 -49.1C55.6 -43.5 59.2 -34.5 62.2 -25.7C65.1 -17 67.3 -8.5 69.4 0L0 0Z" fill="#0360ba"></path></g></svg>